<svg width="288" height="83" viewBox="0 0 288 83" fill="none" xmlns="http://www.w3.org/2000/svg">
<path fill-rule="evenodd" clip-rule="evenodd" d="M0.5 0.5H54.3285L0.5 47.7043V0.5ZM1.5 1.5V45.4973L51.6715 1.5H1.5ZM17.1713 38.6308H53V39.6308H17.8652V81.5H26.8518L53.5 64.1877V82.5H0.5V53.8503L17.1713 38.6308ZM28.6874 81.5H52.5V66.0298L28.6874 81.5ZM16.8652 81.5V40.2642L1.5 54.2915V81.5H16.8652Z" fill="url(#paint0_linear_188_1748)"/>
<path d="M69.4805 53.9996V81.9997H82.7605V80.7596H70.7605V53.9996H69.4805Z" fill="url(#paint1_linear_188_1748)"/>
<path d="M97.5023 81.9997H111.222V80.7596H97.5023V81.9997ZM97.5023 55.2396H111.222V53.9996H97.5023V55.2396ZM97.5023 67.1597H110.422V65.9197H97.5023V67.1597ZM96.9023 53.9996V81.9997H98.2223V53.9996H96.9023Z" fill="url(#paint2_linear_188_1748)"/>
<path d="M127.601 67.9997C127.601 65.4397 128.121 63.1863 129.161 61.2396C130.227 59.293 131.667 57.773 133.481 56.6797C135.294 55.5597 137.347 54.9997 139.641 54.9997C140.921 54.9997 142.094 55.133 143.161 55.3997C144.254 55.6663 145.254 56.0663 146.161 56.5996C147.094 57.133 147.921 57.7863 148.641 58.5597V56.8397C147.467 55.7997 146.187 55.013 144.801 54.4797C143.414 53.9196 141.694 53.6396 139.641 53.6396C137.694 53.6396 135.894 53.9996 134.241 54.7196C132.614 55.413 131.201 56.413 130.001 57.7196C128.801 58.9996 127.867 60.5197 127.201 62.2796C126.534 64.013 126.201 65.9197 126.201 67.9997C126.201 70.0797 126.534 71.9996 127.201 73.7596C127.867 75.493 128.801 77.013 130.001 78.3197C131.201 79.5997 132.614 80.5997 134.241 81.3197C135.894 82.013 137.694 82.3597 139.641 82.3597C141.694 82.3597 143.414 82.093 144.801 81.5597C146.187 80.9997 147.467 80.1997 148.641 79.1597V77.3997C147.894 78.173 147.081 78.8397 146.201 79.3997C145.321 79.933 144.334 80.333 143.241 80.5996C142.174 80.8663 140.974 80.9997 139.641 80.9997C137.347 80.9997 135.294 80.4397 133.481 79.3197C131.667 78.1997 130.227 76.6663 129.161 74.7197C128.121 72.7463 127.601 70.5063 127.601 67.9997Z" fill="url(#paint3_linear_188_1748)"/>
<path d="M164.744 74.1997L163.664 74.8397C163.984 76.173 164.504 77.413 165.224 78.5597C165.944 79.7063 166.89 80.6263 168.064 81.3197C169.237 82.013 170.664 82.3597 172.344 82.3597C173.517 82.3597 174.584 82.173 175.544 81.7997C176.504 81.4263 177.317 80.9196 177.984 80.2796C178.677 79.613 179.21 78.8263 179.584 77.9196C179.957 77.013 180.144 76.0263 180.144 74.9597C180.144 73.7596 179.93 72.7197 179.504 71.8397C179.104 70.9597 178.57 70.213 177.904 69.5997C177.237 68.9863 176.49 68.4663 175.664 68.0396C174.864 67.613 174.064 67.2397 173.264 66.9197C171.85 66.413 170.61 65.853 169.544 65.2396C168.504 64.6263 167.677 63.9063 167.064 63.0797C166.477 62.2263 166.184 61.1997 166.184 59.9997C166.184 58.453 166.69 57.2263 167.704 56.3197C168.744 55.413 170.13 54.9596 171.864 54.9596C173.17 54.9596 174.264 55.1996 175.144 55.6796C176.024 56.1596 176.73 56.7597 177.264 57.4797C177.824 58.1997 178.237 58.933 178.504 59.6796L179.704 59.0397C179.384 58.213 178.89 57.3863 178.224 56.5596C177.557 55.733 176.704 55.0396 175.664 54.4797C174.624 53.9196 173.37 53.6396 171.904 53.6396C170.544 53.6396 169.33 53.9063 168.264 54.4397C167.197 54.973 166.357 55.733 165.744 56.7197C165.157 57.6797 164.864 58.813 164.864 60.1196C164.864 61.2663 165.077 62.253 165.504 63.0797C165.93 63.9063 166.504 64.6263 167.224 65.2396C167.97 65.8263 168.784 66.3463 169.664 66.7997C170.544 67.2263 171.424 67.613 172.304 67.9597C173.37 68.3596 174.397 68.8397 175.384 69.3997C176.37 69.9597 177.184 70.693 177.824 71.5996C178.464 72.5063 178.784 73.6663 178.784 75.0796C178.784 76.813 178.224 78.253 177.104 79.3997C175.984 80.5197 174.41 81.0797 172.384 81.0797C170.837 81.0797 169.557 80.7596 168.544 80.1196C167.53 79.4796 166.717 78.6396 166.104 77.5996C165.517 76.533 165.064 75.3997 164.744 74.1997Z" fill="url(#paint4_linear_188_1748)"/>
<path d="M196.058 67.3596H214.698V66.1196H196.058V67.3596ZM213.818 53.9996V81.9997H215.138V53.9996H213.818ZM195.418 53.9996V81.9997H196.738V53.9996H195.418Z" fill="url(#paint5_linear_188_1748)"/>
<path d="M231.858 67.9997C231.858 65.4663 232.378 63.2263 233.418 61.2796C234.484 59.333 235.951 57.7997 237.818 56.6797C239.684 55.533 241.804 54.9596 244.178 54.9596C246.604 54.9596 248.738 55.533 250.578 56.6797C252.444 57.7997 253.898 59.333 254.938 61.2796C255.978 63.2263 256.498 65.4663 256.498 67.9997C256.498 70.5063 255.978 72.7463 254.938 74.7197C253.898 76.6663 252.444 78.213 250.578 79.3597C248.738 80.4797 246.604 81.0397 244.178 81.0397C241.804 81.0397 239.684 80.4797 237.818 79.3597C235.951 78.213 234.484 76.6663 233.418 74.7197C232.378 72.7463 231.858 70.5063 231.858 67.9997ZM230.498 67.9997C230.498 70.053 230.831 71.9597 231.498 73.7197C232.191 75.4797 233.151 76.9996 234.378 78.2796C235.604 79.5596 237.044 80.5596 238.698 81.2796C240.378 81.9996 242.204 82.3597 244.178 82.3597C246.178 82.3597 248.004 81.9996 249.658 81.2796C251.311 80.5596 252.751 79.5596 253.978 78.2796C255.231 76.9996 256.191 75.4797 256.858 73.7197C257.551 71.9597 257.898 70.053 257.898 67.9997C257.898 65.9197 257.551 64.013 256.858 62.2796C256.191 60.5197 255.231 58.9996 253.978 57.7196C252.751 56.4396 251.311 55.4396 249.658 54.7196C248.004 53.9996 246.178 53.6396 244.178 53.6396C242.204 53.6396 240.378 53.9996 238.698 54.7196C237.044 55.4396 235.604 56.4396 234.378 57.7196C233.151 58.9996 232.191 60.5197 231.498 62.2796C230.831 64.013 230.498 65.9197 230.498 67.9997Z" fill="url(#paint6_linear_188_1748)"/>
<path d="M273.27 53.9996V81.9997H274.59V53.9996H273.27ZM274.03 55.2396H279.03C281.27 55.2396 283.083 55.8396 284.47 57.0396C285.883 58.2396 286.59 59.9596 286.59 62.1996C286.59 64.4397 285.883 66.173 284.47 67.3997C283.083 68.5997 281.27 69.1996 279.03 69.1996H274.03V70.3997H279.03C280.763 70.3997 282.296 70.0796 283.63 69.4396C284.963 68.773 286.003 67.8263 286.75 66.5996C287.523 65.373 287.91 63.9063 287.91 62.1996C287.91 60.4663 287.523 58.9997 286.75 57.7997C286.003 56.573 284.963 55.6397 283.63 54.9997C282.296 54.333 280.763 53.9996 279.03 53.9996H274.03V55.2396Z" fill="url(#paint7_linear_188_1748)"/>
<defs>
<linearGradient id="paint0_linear_188_1748" x1="27.4143" y1="0.5" x2="27.4418" y2="151.802" gradientUnits="userSpaceOnUse">
<stop stop-color="#FFDB7E"/>
<stop offset="1" stop-color="#FF8181" stop-opacity="0"/>
</linearGradient>
<linearGradient id="paint1_linear_188_1748" x1="178.695" y1="53.6396" x2="178.696" y2="106.632" gradientUnits="userSpaceOnUse">
<stop stop-color="#FFDB7E"/>
<stop offset="1" stop-color="#FF8181" stop-opacity="0"/>
</linearGradient>
<linearGradient id="paint2_linear_188_1748" x1="178.695" y1="53.6396" x2="178.696" y2="106.632" gradientUnits="userSpaceOnUse">
<stop stop-color="#FFDB7E"/>
<stop offset="1" stop-color="#FF8181" stop-opacity="0"/>
</linearGradient>
<linearGradient id="paint3_linear_188_1748" x1="178.695" y1="53.6396" x2="178.696" y2="106.632" gradientUnits="userSpaceOnUse">
<stop stop-color="#FFDB7E"/>
<stop offset="1" stop-color="#FF8181" stop-opacity="0"/>
</linearGradient>
<linearGradient id="paint4_linear_188_1748" x1="178.695" y1="53.6396" x2="178.696" y2="106.632" gradientUnits="userSpaceOnUse">
<stop stop-color="#FFDB7E"/>
<stop offset="1" stop-color="#FF8181" stop-opacity="0"/>
</linearGradient>
<linearGradient id="paint5_linear_188_1748" x1="178.695" y1="53.6396" x2="178.696" y2="106.632" gradientUnits="userSpaceOnUse">
<stop stop-color="#FFDB7E"/>
<stop offset="1" stop-color="#FF8181" stop-opacity="0"/>
</linearGradient>
<linearGradient id="paint6_linear_188_1748" x1="178.695" y1="53.6396" x2="178.696" y2="106.632" gradientUnits="userSpaceOnUse">
<stop stop-color="#FFDB7E"/>
<stop offset="1" stop-color="#FF8181" stop-opacity="0"/>
</linearGradient>
<linearGradient id="paint7_linear_188_1748" x1="178.695" y1="53.6396" x2="178.696" y2="106.632" gradientUnits="userSpaceOnUse">
<stop stop-color="#FFDB7E"/>
<stop offset="1" stop-color="#FF8181" stop-opacity="0"/>
</linearGradient>
</defs>
</svg>
